<?xml version="1.0" standalone="no"?><!DOCTYPE svg PUBLIC "-//W3C//DTD SVG 1.1//EN" "http://www.w3.org/Graphics/SVG/1.1/DTD/svg11.dtd" [<!ENTITY nbsp "&#160;">]><svg xmlns="http://www.w3.org/2000/svg" xmlns:xlink="http://www.w3.org/1999/xlink" viewBox="0 0 810 826.5052490234375" width="810" height="826.5052490234375" id="6DecQXLpmG9WZJm9f3rVjg--SVGRenderer" class="SVGRenderer 6DecQXLpmG9WZJm9f3rVjg--SVGRenderer" overflow="hidden" style="position: relative;" version="1.1"><defs><style type="text/css"><![CDATA[
.css-1k0fv0n-TemplateJSONToSVG{position: absolute; top: 50%; left: 0px; z-index: 1;}

button, input, optgroup, select, textarea{font-family: inherit; font-size: 100%; line-height: 1.15; margin: 0px;}

button, input{overflow: visible;}

button, select{text-transform: none;}

button, [type="button"], [type="reset"], [type="submit"]{appearance: button;}

*{box-sizing: border-box; margin: 0px; padding: 0px; list-style: none;}

          @font-face {
            font-family: Mada-Black;
            font-display: swap;
            src: url("http://localhost:3003/public/Mada-Black.woff") format('woff');
          }
        

]]></style></defs><rect class="SolidColorBackgroundLayer" x="0" y="0" width="100%" height="100%" opacity="1" fill="#efe5d3"></rect><text data-will-remove="true" fill="transparent" font-size="89.9551159868771" font-family="Mada-Black" pointer-events="none">ABCDEFGHIJKLMNOPQRSTUVWXYZ</text><text data-will-remove="true" fill="transparent" font-size="89.9551159868771" font-family="Mada-Black" pointer-events="none"><tspan class="Text--e6f9e974-5382-dfa0-1b54-8473611194fe Text" x="405.0000000000001" dy="0" text-anchor="middle" dominant-baseline="text-before-edge" style="white-space: pre;">HOBBY BAY</tspan></text><text id="brandName" data-id="target-dataId" class="Text__Line" y="449.5178204519026" font-family="Mada-Black" font-size="89.9551159868771" letter-spacing="0" fill="#2b2b2b" text-anchor="middle" dominant-baseline="text-before-edge" opacity="1" style="line-height: normal; transform: rotateZ(0rad); transform-origin: 405px 503.519px;"><tspan class="Text--e6f9e974-5382-dfa0-1b54-8473611194fe Text" x="405.0000000000001" dy="0" text-anchor="middle" dominant-baseline="text-before-edge" style="white-space: pre;">HOBBY BAY</tspan></text><g style="opacity: 1; transform: rotateZ(0rad) rotateY(0deg); transform-box: fill-box; transform-origin: center center;"><svg width="169.56285044617684" height="188.522409673281" viewBox="0 0 948 1054" fill="none" xmlns="http://www.w3.org/2000/svg" class="SVGRenderer" x="320.2185747769117" y="251.43989063745732" style="display: block; width: 100%; height: 100%;"><path d="M0.09375 473.905C0.09375 212.175 212.268 0 473.999 0V0C735.729 0 947.904 212.175 947.904 473.905V1054H0.09375V473.905Z" fill="#343436"></path></svg></g><g style="opacity: 1; transform: rotateZ(0rad) rotateY(0deg); transform-box: fill-box; transform-origin: center center;"><svg version="1.1" xmlns="http://www.w3.org/2000/svg" xmlns:xlink="http://www.w3.org/1999/xlink" width="152.7977581066134" height="112.71965761963284" xml:space="preserve" id="canvas1" class="SVGRenderer" viewBox="0 0 61 45" x="328.6011209466933" y="311.9514425687353" style="display: block; width: 100%; height: 100%;"><g id="canvas1-group3" clip-path="url(#canvas1-clip)"><clipPath id="canvas1-clip"><rect x="0.02" y="0.02" width="60.55" height="44.9" style="fill: rgb(239, 229, 211);"></rect></clipPath><path id="canvas1-bezier" stroke="none" fill="rgb(0, 0, 0)" d="M 23.81,18.46 C 23.31,17.99 23.15,17.19 23.34,16.09 23.38,15.89 23.31,15.69 23.17,15.54 23.02,15.4 22.82,15.33 22.62,15.37 L 19.28,15.94 C 19.92,14.34 20.86,13.86 21.7,13.43 22.17,13.19 22.61,12.95 22.96,12.56 24.66,12.87 27.08,12.91 30.56,12.29 L 30.16,11.42 C 29.91,10.91 29.98,10.27 30.33,9.83 30.67,9.39 31.28,9.17 31.82,9.28 32.28,9.38 32.68,9.69 32.96,10.07 33.69,11.06 33.55,12.56 32.74,13.47 L 31.83,14.04 C 32.17,14.6 32.24,15.12 32.04,15.65 31.51,17.06 29.19,18.34 27.16,18.96 26.52,19.1 24.68,19.29 23.81,18.46 Z M 37.67,11.4 C 37.81,10.87 38.16,10.56 38.62,10.38 41.57,11.48 39.19,15.4 38.9,15.36 L 37.64,14.95 C 37.46,13.76 37.36,12.55 37.67,11.4 Z M 39.91,38.76 C 39.91,38.76 34.68,28.23 34.65,28.12 30.86,34.92 29.14,37.8 28.5,38.76 L 17.47,38.76 C 17.62,38.38 17.87,37.69 18.15,36.95 L 23.66,23.35 C 23.66,23.34 24.06,21.9 25.19,21.24 25.43,21.1 25.7,21.02 25.98,20.97 26.57,20.92 27.69,20.98 28.52,21.9 L 22.03,33.88 23.14,34.48 30.34,21.19 C 30.49,20.94 33.87,15.5 38.51,16.45 42.17,17.76 44.4,19.41 46.34,20.85 47.46,21.68 48.42,22.99 49.3,24.06 50.48,25.5 51.57,27.01 52.58,28.58 54.94,32.27 58.43,40.78 59.19,44.92 L 60.56,44.92 C 59.97,41.3 58.06,36.14 56.5,32.92 54.73,29.23 52.49,25.76 49.81,22.66 48.96,21.67 48.06,20.72 47.11,19.83 47.74,17.06 46.89,11.3 38.82,8.84 37.62,5.34 36.27,1.05 32.59,0.23 30.89,-0.15 29.11,-0.03 27.42,0.35 27.35,0.37 27.27,0.38 27.2,0.4 26.45,0.58 25.71,0.82 24.99,1.12 22.77,2.05 20.86,3.53 19.83,5.76 19.76,5.9 19.7,6.05 19.64,6.2 19.15,7.39 18.76,8.85 19.12,10.13 19.35,10.95 19.93,11.51 20.7,11.85 20.91,11.96 21.15,12.06 21.41,12.16 21.32,12.21 21.23,12.26 21.13,12.31 20.02,12.87 18.51,13.64 17.76,16.57 17.71,16.78 17.76,17 17.91,17.16 18.05,17.31 18.27,17.39 18.47,17.35 L 22.01,16.75 C 21.97,17.87 22.29,18.75 22.95,19.38 23.4,19.8 23.96,20.04 24.53,20.18 22.96,21.11 22.46,22.96 22.47,22.96 L 17.76,34.56 C 17.15,34.73 16.53,34.92 16.06,35.01 14.98,35.22 13.81,35.73 12.7,35.5 12.55,35.47 12.4,35.42 12.25,35.36 L 15.8,28.62 13.58,28.27 10.25,34.28 C 9.98,34.16 9.7,34.06 9.4,34.01 7.1,33.66 5.83,36.71 5,38.76 L -0,38.76 -0,44.92 35.51,44.92 39.91,44.92 39.91,38.76 Z M 39.91,38.76" style="fill: rgb(239, 229, 211);"></path></g></svg></g></svg>
